<?xml version="1.0" encoding="UTF-8"?>
<svg width="24" height="24" viewBox="0 0 24 24" fill="none" xmlns="http://www.w3.org/2000/svg">  <path d="M3 14L4 8.5C4 8.5 5 6 7 6L11 6L13 3.5L17 6C19 6 20 8.5 20 8.5L21 14M3 14H21M3 14V17H5M21 14V17H19M5 17H19M5 17V19H7M19 17V19H17M7 19H17" stroke="currentColor" stroke-width="2" stroke-linecap="round" stroke-linejoin="round"/>
  <path d="M7 11H9M15 11H17" stroke="currentColor" stroke-width="2" stroke-linecap="round"/>
  <path d="M11 6H17" stroke="currentColor" stroke-width="2" stroke-linecap="round"/>
  <path d="M12 6V4" stroke="currentColor" stroke-width="2" stroke-linecap="round"/>
</svg>
